<svg xmlns="http://www.w3.org/2000/svg" xmlns:xlink="http://www.w3.org/1999/xlink" width="400" zoomAndPan="magnify" viewBox="0 0 300 74.999997" height="100" preserveAspectRatio="xMidYMid meet" version="1.0"><defs><g/><clipPath id="ef9f0773a1"><path d="M 34 21 L 52 21 L 52 39 L 34 39 Z M 34 21 " clip-rule="nonzero"/></clipPath><clipPath id="8acbcd34d7"><path d="M 46.039062 15.65625 L 57.375 27.421875 L 45.609375 38.757812 L 34.273438 26.992188 Z M 46.039062 15.65625 " clip-rule="nonzero"/></clipPath><clipPath id="b42c50c2c6"><path d="M 46.039062 15.65625 L 57.375 27.421875 L 45.609375 38.757812 L 34.273438 26.992188 Z M 46.039062 15.65625 " clip-rule="nonzero"/></clipPath><clipPath id="30e613622e"><path d="M 13.679688 29.277344 L 30 29.277344 L 30 55.417969 L 13.679688 55.417969 Z M 13.679688 29.277344 " clip-rule="nonzero"/></clipPath><clipPath id="236f631954"><path d="M 30 32 L 39.824219 32 L 39.824219 53 L 30 53 Z M 30 32 " clip-rule="nonzero"/></clipPath></defs><g clip-path="url(#ef9f0773a1)"><g clip-path="url(#8acbcd34d7)"><g clip-path="url(#b42c50c2c6)"><path fill="#a6a6a6" d="M 46.613281 26.691406 C 46.636719 26.742188 46.671875 26.792969 46.691406 26.84375 C 46.75 26.996094 46.742188 27.039062 46.757812 27.195312 L 46.566406 37.351562 C 46.558594 37.410156 46.558594 37.46875 46.546875 37.527344 C 46.445312 37.984375 45.941406 38.316406 45.476562 38.214844 C 45.132812 38.136719 44.847656 37.84375 44.785156 37.492188 C 44.773438 37.4375 44.773438 37.378906 44.769531 37.316406 L 44.941406 28.054688 L 35.679688 27.882812 L 35.503906 27.863281 C 35.449219 27.847656 35.394531 27.832031 35.335938 27.808594 C 34.960938 27.644531 34.730469 27.207031 34.816406 26.796875 C 34.894531 26.449219 35.1875 26.164062 35.535156 26.101562 C 35.59375 26.089844 35.652344 26.089844 35.714844 26.085938 L 45.871094 26.277344 C 45.933594 26.28125 45.992188 26.285156 46.046875 26.296875 C 46.164062 26.320312 46.273438 26.367188 46.367188 26.4375 C 46.464844 26.503906 46.539062 26.597656 46.613281 26.691406 Z M 51.785156 21.703125 C 51.816406 21.753906 51.847656 21.808594 51.867188 21.859375 C 51.925781 22.007812 51.917969 22.050781 51.933594 22.207031 L 51.742188 32.367188 C 51.734375 32.425781 51.730469 32.484375 51.71875 32.542969 C 51.632812 32.945312 51.242188 33.257812 50.828125 33.25 C 50.414062 33.242188 50.03125 32.917969 49.957031 32.507812 C 49.945312 32.453125 49.949219 32.390625 49.945312 32.332031 L 50.117188 23.070312 L 40.855469 22.898438 L 40.679688 22.875 C 40.625 22.859375 40.566406 22.847656 40.511719 22.820312 C 40.132812 22.660156 39.90625 22.210938 39.992188 21.808594 C 40.070312 21.460938 40.363281 21.179688 40.710938 21.117188 C 40.769531 21.105469 40.828125 21.105469 40.886719 21.101562 L 51.050781 21.289062 C 51.105469 21.296875 51.167969 21.300781 51.222656 21.3125 C 51.339844 21.335938 51.449219 21.382812 51.542969 21.453125 C 51.640625 21.519531 51.714844 21.613281 51.785156 21.703125 " fill-opacity="1" fill-rule="nonzero"/></g></g></g><g clip-path="url(#30e613622e)"><path fill="#a6a6a6" d="M 29.492188 29.402344 C 29.371094 29.304688 29.210938 29.261719 29.054688 29.292969 L 14.117188 32.078125 C 13.863281 32.125 13.679688 32.34375 13.679688 32.59375 L 13.679688 52.101562 C 13.679688 52.351562 13.863281 52.570312 14.117188 52.613281 L 29.054688 55.402344 C 29.085938 55.40625 29.121094 55.410156 29.152344 55.410156 C 29.277344 55.410156 29.398438 55.371094 29.492188 55.292969 C 29.617188 55.191406 29.6875 55.042969 29.6875 54.886719 L 29.6875 29.804688 C 29.6875 29.648438 29.617188 29.503906 29.492188 29.402344 Z M 25.003906 47.230469 L 23.070312 47.230469 L 21.789062 40.96875 C 21.71875 40.640625 21.679688 40.273438 21.664062 39.871094 L 21.644531 39.871094 C 21.609375 40.316406 21.5625 40.679688 21.503906 40.96875 L 20.1875 47.230469 L 18.175781 47.230469 L 16.140625 37.46875 L 18.046875 37.46875 L 19.136719 43.96875 C 19.183594 44.246094 19.214844 44.617188 19.238281 45.085938 L 19.269531 45.085938 C 19.285156 44.738281 19.335938 44.355469 19.425781 43.941406 L 20.828125 37.46875 L 22.695312 37.46875 L 23.960938 44.023438 C 24.007812 44.265625 24.050781 44.613281 24.085938 45.074219 L 24.109375 45.074219 C 24.121094 44.714844 24.160156 44.351562 24.222656 43.984375 L 25.289062 37.46875 L 27.046875 37.46875 Z M 25.003906 47.230469 " fill-opacity="1" fill-rule="nonzero"/></g><g clip-path="url(#236f631954)"><path fill="#a6a6a6" d="M 38.757812 32.417969 L 30.753906 32.417969 L 30.753906 36.078125 L 37.15625 36.078125 L 37.15625 37.121094 L 30.753906 37.121094 L 30.753906 39.734375 L 37.15625 39.734375 L 37.15625 40.78125 L 30.753906 40.78125 L 30.753906 43.390625 L 37.15625 43.390625 L 37.15625 44.4375 L 30.753906 44.4375 L 30.753906 47.574219 L 37.15625 47.574219 L 37.15625 48.617188 L 30.753906 48.617188 L 30.753906 52.277344 L 38.757812 52.277344 C 39.34375 52.277344 39.824219 51.808594 39.824219 51.230469 L 39.824219 33.464844 C 39.824219 32.886719 39.34375 32.417969 38.757812 32.417969 Z M 38.757812 51.753906 L 38.757812 51.230469 Z M 38.757812 51.753906 " fill-opacity="1" fill-rule="nonzero"/></g><g fill="#545454" fill-opacity="1"><g transform="translate(56.883828, 51.576509)"><g><path d="M 13.03125 -5.625 C 13.03125 -6.457031 12.734375 -7.097656 12.140625 -7.546875 C 11.554688 -7.992188 10.5 -8.460938 8.96875 -8.953125 C 7.4375 -9.453125 6.222656 -9.941406 5.328125 -10.421875 C 2.890625 -11.734375 1.671875 -13.503906 1.671875 -15.734375 C 1.671875 -16.898438 2 -17.9375 2.65625 -18.84375 C 3.3125 -19.75 4.25 -20.457031 5.46875 -20.96875 C 6.6875 -21.476562 8.054688 -21.734375 9.578125 -21.734375 C 11.117188 -21.734375 12.484375 -21.453125 13.671875 -20.890625 C 14.867188 -20.335938 15.800781 -19.554688 16.46875 -18.546875 C 17.132812 -17.535156 17.46875 -16.390625 17.46875 -15.109375 L 13.046875 -15.109375 C 13.046875 -16.085938 12.734375 -16.847656 12.109375 -17.390625 C 11.492188 -17.941406 10.628906 -18.21875 9.515625 -18.21875 C 8.429688 -18.21875 7.585938 -17.988281 6.984375 -17.53125 C 6.390625 -17.070312 6.09375 -16.46875 6.09375 -15.71875 C 6.09375 -15.03125 6.441406 -14.445312 7.140625 -13.96875 C 7.847656 -13.5 8.882812 -13.0625 10.25 -12.65625 C 12.757812 -11.894531 14.585938 -10.953125 15.734375 -9.828125 C 16.890625 -8.710938 17.46875 -7.320312 17.46875 -5.65625 C 17.46875 -3.800781 16.765625 -2.34375 15.359375 -1.28125 C 13.953125 -0.226562 12.0625 0.296875 9.6875 0.296875 C 8.039062 0.296875 6.539062 -0.00390625 5.1875 -0.609375 C 3.832031 -1.210938 2.796875 -2.039062 2.078125 -3.09375 C 1.367188 -4.144531 1.015625 -5.363281 1.015625 -6.75 L 5.453125 -6.75 C 5.453125 -4.375 6.863281 -3.1875 9.6875 -3.1875 C 10.738281 -3.1875 11.554688 -3.398438 12.140625 -3.828125 C 12.734375 -4.253906 13.03125 -4.851562 13.03125 -5.625 Z M 13.03125 -5.625 "/></g></g></g><g fill="#545454" fill-opacity="1"><g transform="translate(75.415514, 51.576509)"><g><path d="M 8.96875 0.296875 C 6.632812 0.296875 4.734375 -0.414062 3.265625 -1.84375 C 1.796875 -3.28125 1.0625 -5.191406 1.0625 -7.578125 L 1.0625 -8 C 1.0625 -9.59375 1.367188 -11.019531 1.984375 -12.28125 C 2.609375 -13.550781 3.484375 -14.523438 4.609375 -15.203125 C 5.742188 -15.890625 7.039062 -16.234375 8.5 -16.234375 C 10.675781 -16.234375 12.390625 -15.546875 13.640625 -14.171875 C 14.890625 -12.796875 15.515625 -10.84375 15.515625 -8.3125 L 15.515625 -6.578125 L 5.375 -6.578125 C 5.507812 -5.535156 5.921875 -4.703125 6.609375 -4.078125 C 7.304688 -3.453125 8.1875 -3.140625 9.25 -3.140625 C 10.882812 -3.140625 12.164062 -3.734375 13.09375 -4.921875 L 15.1875 -2.578125 C 14.539062 -1.671875 13.671875 -0.960938 12.578125 -0.453125 C 11.492188 0.046875 10.289062 0.296875 8.96875 0.296875 Z M 8.484375 -12.78125 C 7.640625 -12.78125 6.953125 -12.492188 6.421875 -11.921875 C 5.898438 -11.359375 5.566406 -10.546875 5.421875 -9.484375 L 11.34375 -9.484375 L 11.34375 -9.828125 C 11.320312 -10.765625 11.066406 -11.488281 10.578125 -12 C 10.085938 -12.519531 9.390625 -12.78125 8.484375 -12.78125 Z M 8.484375 -12.78125 "/></g></g></g><g fill="#545454" fill-opacity="1"><g transform="translate(91.709856, 51.576509)"><g><path d="M 8.265625 -3.140625 C 9.046875 -3.140625 9.679688 -3.351562 10.171875 -3.78125 C 10.660156 -4.21875 10.914062 -4.789062 10.9375 -5.5 L 14.9375 -5.5 C 14.925781 -4.425781 14.628906 -3.4375 14.046875 -2.53125 C 13.460938 -1.632812 12.664062 -0.9375 11.65625 -0.4375 C 10.65625 0.0507812 9.546875 0.296875 8.328125 0.296875 C 6.054688 0.296875 4.257812 -0.425781 2.9375 -1.875 C 1.625 -3.320312 0.96875 -5.320312 0.96875 -7.875 L 0.96875 -8.15625 C 0.96875 -10.613281 1.617188 -12.570312 2.921875 -14.03125 C 4.234375 -15.5 6.03125 -16.234375 8.3125 -16.234375 C 10.300781 -16.234375 11.894531 -15.664062 13.09375 -14.53125 C 14.300781 -13.394531 14.914062 -11.882812 14.9375 -10 L 10.9375 -10 C 10.914062 -10.820312 10.660156 -11.488281 10.171875 -12 C 9.679688 -12.519531 9.035156 -12.78125 8.234375 -12.78125 C 7.242188 -12.78125 6.492188 -12.414062 5.984375 -11.6875 C 5.484375 -10.96875 5.234375 -9.800781 5.234375 -8.1875 L 5.234375 -7.75 C 5.234375 -6.101562 5.484375 -4.921875 5.984375 -4.203125 C 6.484375 -3.492188 7.242188 -3.140625 8.265625 -3.140625 Z M 8.265625 -3.140625 "/></g></g></g><g fill="#545454" fill-opacity="1"><g transform="translate(107.430139, 51.576509)"><g><path d="M 11.171875 -1.625 C 10.117188 -0.34375 8.664062 0.296875 6.8125 0.296875 C 5.101562 0.296875 3.800781 -0.191406 2.90625 -1.171875 C 2.007812 -2.160156 1.550781 -3.601562 1.53125 -5.5 L 1.53125 -15.9375 L 5.78125 -15.9375 L 5.78125 -5.640625 C 5.78125 -3.984375 6.535156 -3.15625 8.046875 -3.15625 C 9.492188 -3.15625 10.488281 -3.65625 11.03125 -4.65625 L 11.03125 -15.9375 L 15.296875 -15.9375 L 15.296875 0 L 11.296875 0 Z M 11.171875 -1.625 "/></g></g></g><g fill="#545454" fill-opacity="1"><g transform="translate(124.298532, 51.576509)"><g><path d="M 18.609375 -6.1875 L 21.5 -21.4375 L 25.90625 -21.4375 L 21.140625 0 L 16.703125 0 L 13.203125 -14.34375 L 9.71875 0 L 5.265625 0 L 0.515625 -21.4375 L 4.921875 -21.4375 L 7.8125 -6.21875 L 11.359375 -21.4375 L 15.09375 -21.4375 Z M 18.609375 -6.1875 "/></g></g></g><g fill="#545454" fill-opacity="1"><g transform="translate(150.66092, 51.576509)"><g><path d="M 0.96875 -8.109375 C 0.96875 -9.691406 1.269531 -11.097656 1.875 -12.328125 C 2.488281 -13.566406 3.367188 -14.523438 4.515625 -15.203125 C 5.660156 -15.890625 6.988281 -16.234375 8.5 -16.234375 C 10.644531 -16.234375 12.394531 -15.570312 13.75 -14.25 C 15.113281 -12.9375 15.875 -11.148438 16.03125 -8.890625 L 16.0625 -7.796875 C 16.0625 -5.359375 15.378906 -3.398438 14.015625 -1.921875 C 12.648438 -0.441406 10.816406 0.296875 8.515625 0.296875 C 6.222656 0.296875 4.390625 -0.4375 3.015625 -1.90625 C 1.648438 -3.382812 0.96875 -5.390625 0.96875 -7.921875 Z M 5.234375 -7.796875 C 5.234375 -6.285156 5.515625 -5.128906 6.078125 -4.328125 C 6.648438 -3.535156 7.46875 -3.140625 8.53125 -3.140625 C 9.5625 -3.140625 10.363281 -3.53125 10.9375 -4.3125 C 11.519531 -5.101562 11.8125 -6.367188 11.8125 -8.109375 C 11.8125 -9.597656 11.519531 -10.75 10.9375 -11.5625 C 10.363281 -12.375 9.550781 -12.78125 8.5 -12.78125 C 7.457031 -12.78125 6.648438 -12.375 6.078125 -11.5625 C 5.515625 -10.75 5.234375 -9.492188 5.234375 -7.796875 Z M 5.234375 -7.796875 "/></g></g></g><g fill="#545454" fill-opacity="1"><g transform="translate(167.705946, 51.576509)"><g><path d="M 10.59375 -11.9375 C 10.007812 -12.019531 9.5 -12.0625 9.0625 -12.0625 C 7.445312 -12.0625 6.390625 -11.515625 5.890625 -10.421875 L 5.890625 0 L 1.640625 0 L 1.640625 -15.9375 L 5.65625 -15.9375 L 5.765625 -14.03125 C 6.617188 -15.5 7.804688 -16.234375 9.328125 -16.234375 C 9.796875 -16.234375 10.234375 -16.164062 10.640625 -16.03125 Z M 10.59375 -11.9375 "/></g></g></g><g fill="#545454" fill-opacity="1"><g transform="translate(178.701316, 51.576509)"><g><path d="M 0.96875 -8.078125 C 0.96875 -10.566406 1.523438 -12.546875 2.640625 -14.015625 C 3.753906 -15.492188 5.28125 -16.234375 7.21875 -16.234375 C 8.769531 -16.234375 10.050781 -15.648438 11.0625 -14.484375 L 11.0625 -22.625 L 15.328125 -22.625 L 15.328125 0 L 11.484375 0 L 11.28125 -1.6875 C 10.21875 -0.363281 8.851562 0.296875 7.1875 0.296875 C 5.3125 0.296875 3.804688 -0.441406 2.671875 -1.921875 C 1.535156 -3.398438 0.96875 -5.453125 0.96875 -8.078125 Z M 5.234375 -7.78125 C 5.234375 -6.28125 5.488281 -5.132812 6 -4.34375 C 6.519531 -3.550781 7.28125 -3.15625 8.28125 -3.15625 C 9.59375 -3.15625 10.519531 -3.707031 11.0625 -4.8125 L 11.0625 -11.109375 C 10.53125 -12.210938 9.613281 -12.765625 8.3125 -12.765625 C 6.257812 -12.765625 5.234375 -11.101562 5.234375 -7.78125 Z M 5.234375 -7.78125 "/></g></g></g><g fill="#545454" fill-opacity="1"><g transform="translate(195.687464, 51.576509)"><g/></g></g><g fill="#545454" fill-opacity="1"><g transform="translate(203.19434, 51.576509)"><g><path d="M 1.921875 0 L 1.921875 -21.4375 L 9.421875 -21.4375 C 12.023438 -21.4375 14 -20.9375 15.34375 -19.9375 C 16.6875 -18.945312 17.359375 -17.488281 17.359375 -15.5625 C 17.359375 -14.507812 17.085938 -13.582031 16.546875 -12.78125 C 16.003906 -11.988281 15.253906 -11.40625 14.296875 -11.03125 C 15.398438 -10.75 16.265625 -10.191406 16.890625 -9.359375 C 17.523438 -8.523438 17.84375 -7.503906 17.84375 -6.296875 C 17.84375 -4.234375 17.1875 -2.671875 15.875 -1.609375 C 14.5625 -0.554688 12.6875 -0.0195312 10.25 0 Z M 6.328125 -9.328125 L 6.328125 -3.546875 L 10.109375 -3.546875 C 11.148438 -3.546875 11.960938 -3.789062 12.546875 -4.28125 C 13.128906 -4.78125 13.421875 -5.46875 13.421875 -6.34375 C 13.421875 -8.3125 12.40625 -9.304688 10.375 -9.328125 Z M 6.328125 -12.453125 L 9.59375 -12.453125 C 11.820312 -12.492188 12.9375 -13.382812 12.9375 -15.125 C 12.9375 -16.09375 12.65625 -16.789062 12.09375 -17.21875 C 11.53125 -17.644531 10.640625 -17.859375 9.421875 -17.859375 L 6.328125 -17.859375 Z M 6.328125 -12.453125 "/></g></g></g><g fill="#545454" fill-opacity="1"><g transform="translate(222.432556, 51.576509)"><g><path d="M 0.96875 -8.109375 C 0.96875 -9.691406 1.269531 -11.097656 1.875 -12.328125 C 2.488281 -13.566406 3.367188 -14.523438 4.515625 -15.203125 C 5.660156 -15.890625 6.988281 -16.234375 8.5 -16.234375 C 10.644531 -16.234375 12.394531 -15.570312 13.75 -14.25 C 15.113281 -12.9375 15.875 -11.148438 16.03125 -8.890625 L 16.0625 -7.796875 C 16.0625 -5.359375 15.378906 -3.398438 14.015625 -1.921875 C 12.648438 -0.441406 10.816406 0.296875 8.515625 0.296875 C 6.222656 0.296875 4.390625 -0.4375 3.015625 -1.90625 C 1.648438 -3.382812 0.96875 -5.390625 0.96875 -7.921875 Z M 5.234375 -7.796875 C 5.234375 -6.285156 5.515625 -5.128906 6.078125 -4.328125 C 6.648438 -3.535156 7.46875 -3.140625 8.53125 -3.140625 C 9.5625 -3.140625 10.363281 -3.53125 10.9375 -4.3125 C 11.519531 -5.101562 11.8125 -6.367188 11.8125 -8.109375 C 11.8125 -9.597656 11.519531 -10.75 10.9375 -11.5625 C 10.363281 -12.375 9.550781 -12.78125 8.5 -12.78125 C 7.457031 -12.78125 6.648438 -12.375 6.078125 -11.5625 C 5.515625 -10.75 5.234375 -9.492188 5.234375 -7.796875 Z M 5.234375 -7.796875 "/></g></g></g><g fill="#545454" fill-opacity="1"><g transform="translate(239.47759, 51.576509)"><g><path d="M 0.96875 -8.109375 C 0.96875 -9.691406 1.269531 -11.097656 1.875 -12.328125 C 2.488281 -13.566406 3.367188 -14.523438 4.515625 -15.203125 C 5.660156 -15.890625 6.988281 -16.234375 8.5 -16.234375 C 10.644531 -16.234375 12.394531 -15.570312 13.75 -14.25 C 15.113281 -12.9375 15.875 -11.148438 16.03125 -8.890625 L 16.0625 -7.796875 C 16.0625 -5.359375 15.378906 -3.398438 14.015625 -1.921875 C 12.648438 -0.441406 10.816406 0.296875 8.515625 0.296875 C 6.222656 0.296875 4.390625 -0.4375 3.015625 -1.90625 C 1.648438 -3.382812 0.96875 -5.390625 0.96875 -7.921875 Z M 5.234375 -7.796875 C 5.234375 -6.285156 5.515625 -5.128906 6.078125 -4.328125 C 6.648438 -3.535156 7.46875 -3.140625 8.53125 -3.140625 C 9.5625 -3.140625 10.363281 -3.53125 10.9375 -4.3125 C 11.519531 -5.101562 11.8125 -6.367188 11.8125 -8.109375 C 11.8125 -9.597656 11.519531 -10.75 10.9375 -11.5625 C 10.363281 -12.375 9.550781 -12.78125 8.5 -12.78125 C 7.457031 -12.78125 6.648438 -12.375 6.078125 -11.5625 C 5.515625 -10.75 5.234375 -9.492188 5.234375 -7.796875 Z M 5.234375 -7.796875 "/></g></g></g><g fill="#545454" fill-opacity="1"><g transform="translate(256.522624, 51.576509)"><g><path d="M 10.265625 -4.40625 C 10.265625 -4.925781 10.003906 -5.332031 9.484375 -5.625 C 8.972656 -5.925781 8.148438 -6.195312 7.015625 -6.4375 C 3.222656 -7.226562 1.328125 -8.835938 1.328125 -11.265625 C 1.328125 -12.679688 1.910156 -13.863281 3.078125 -14.8125 C 4.253906 -15.757812 5.789062 -16.234375 7.6875 -16.234375 C 9.707031 -16.234375 11.320312 -15.753906 12.53125 -14.796875 C 13.75 -13.847656 14.359375 -12.613281 14.359375 -11.09375 L 10.09375 -11.09375 C 10.09375 -11.695312 9.894531 -12.195312 9.5 -12.59375 C 9.113281 -12.988281 8.503906 -13.1875 7.671875 -13.1875 C 6.953125 -13.1875 6.394531 -13.023438 6 -12.703125 C 5.613281 -12.378906 5.421875 -11.96875 5.421875 -11.46875 C 5.421875 -11 5.644531 -10.617188 6.09375 -10.328125 C 6.539062 -10.035156 7.289062 -9.785156 8.34375 -9.578125 C 9.40625 -9.367188 10.300781 -9.128906 11.03125 -8.859375 C 13.28125 -8.035156 14.40625 -6.609375 14.40625 -4.578125 C 14.40625 -3.128906 13.78125 -1.953125 12.53125 -1.046875 C 11.28125 -0.148438 9.671875 0.296875 7.703125 0.296875 C 6.367188 0.296875 5.179688 0.0546875 4.140625 -0.421875 C 3.109375 -0.898438 2.296875 -1.550781 1.703125 -2.375 C 1.117188 -3.207031 0.828125 -4.101562 0.828125 -5.0625 L 4.859375 -5.0625 C 4.898438 -4.3125 5.179688 -3.734375 5.703125 -3.328125 C 6.222656 -2.921875 6.921875 -2.71875 7.796875 -2.71875 C 8.609375 -2.71875 9.222656 -2.875 9.640625 -3.1875 C 10.054688 -3.5 10.265625 -3.90625 10.265625 -4.40625 Z M 10.265625 -4.40625 "/></g></g></g><g fill="#545454" fill-opacity="1"><g transform="translate(272.022111, 51.576509)"><g><path d="M 6.734375 -19.84375 L 6.734375 -15.9375 L 9.453125 -15.9375 L 9.453125 -12.8125 L 6.734375 -12.8125 L 6.734375 -4.859375 C 6.734375 -4.265625 6.84375 -3.835938 7.0625 -3.578125 C 7.289062 -3.328125 7.722656 -3.203125 8.359375 -3.203125 C 8.835938 -3.203125 9.253906 -3.238281 9.609375 -3.3125 L 9.609375 -0.09375 C 8.773438 0.164062 7.914062 0.296875 7.03125 0.296875 C 4.050781 0.296875 2.53125 -1.207031 2.46875 -4.21875 L 2.46875 -12.8125 L 0.140625 -12.8125 L 0.140625 -15.9375 L 2.46875 -15.9375 L 2.46875 -19.84375 Z M 6.734375 -19.84375 "/></g></g></g></svg>