<?xml version="1.0" standalone="no"?>
<!DOCTYPE svg PUBLIC "-//W3C//DTD SVG 20010904//EN"
 "http://www.w3.org/TR/2001/REC-SVG-20010904/DTD/svg10.dtd">
<svg version="1.0" xmlns="http://www.w3.org/2000/svg"
 width="512.000000pt" height="512.000000pt" viewBox="0 0 512.000000 512.000000"
 preserveAspectRatio="xMidYMid meet">
<metadata>
Created by potrace 1.14, written by Peter Selinger 2001-2017
</metadata>
<g transform="translate(0.000000,512.000000) scale(0.100000,-0.100000)"
fill="#000000" stroke="none">
<path d="M3377 4460 c-39 -31 -52 -81 -32 -124 30 -63 37 -64 632 -73 293 -5
535 -12 538 -15 3 -3 1 -251 -5 -551 -13 -611 -15 -594 57 -623 32 -14 38 -13
78 6 32 16 46 30 54 53 5 18 15 306 21 640 10 552 10 610 -4 632 -35 54 -22
52 -606 64 -731 15 -702 15 -733 -9z"/>
<path d="M2766 3867 c-49 -47 -50 -95 -3 -142 l32 -32 345 -7 c190 -3 442 -9
560 -12 l215 -6 -6 -327 c-15 -740 -14 -789 8 -819 28 -38 75 -49 118 -29 67
32 66 24 75 469 11 504 13 838 5 860 -4 9 -19 25 -33 35 -24 16 -64 18 -357
24 -181 4 -463 10 -626 14 l-296 6 -37 -34z"/>
<path d="M2160 3582 c-14 -2 -308 -57 -655 -123 -346 -66 -715 -135 -820 -155
-104 -20 -208 -41 -230 -47 l-40 -12 -2 -1180 c-2 -649 1 -1186 6 -1193 5 -8
190 -48 482 -103 261 -49 651 -123 867 -164 217 -41 404 -75 416 -75 13 0 30
8 39 18 16 17 17 137 17 1514 0 1185 -3 1498 -12 1505 -19 15 -40 19 -68 15z
m-1195 -1304 c32 -194 63 -393 70 -443 7 -49 13 -76 14 -59 1 18 12 85 26 150
14 66 50 236 81 379 30 143 58 275 61 293 l6 32 108 0 c104 0 109 -1 114 -22
10 -47 104 -548 125 -668 24 -139 38 -186 39 -134 1 29 114 750 126 802 5 21
10 22 105 22 55 0 100 -3 100 -6 0 -3 -43 -213 -95 -467 -53 -254 -105 -510
-118 -569 l-22 -108 -111 0 -111 0 -77 383 c-42 210 -76 392 -76 405 0 12 -4
22 -10 22 -5 0 -10 -10 -10 -23 0 -13 -18 -111 -40 -218 -23 -106 -58 -277
-79 -379 l-38 -185 -111 -3 c-122 -3 -122 -3 -135 63 -3 17 -47 230 -97 475
-96 472 -120 590 -120 603 0 4 49 7 108 7 l109 0 58 -352z"/>
<path d="M2370 3005 l0 -215 365 0 c201 0 365 -3 366 -7 0 -5 1 -32 2 -60 l2
-53 -367 0 -368 0 0 -155 0 -155 368 0 367 0 -3 -60 -4 -60 -364 0 -364 0 0
-150 0 -150 366 -2 367 -3 -1 -52 c0 -29 -1 -57 -1 -63 -1 -6 -130 -10 -366
-10 l-365 0 0 -182 0 -183 365 3 365 2 0 -65 0 -65 -365 0 -365 0 0 -215 0
-216 478 3 c531 3 512 1 546 71 15 32 16 131 16 1091 0 1163 3 1106 -62 1146
-32 19 -49 20 -505 20 l-473 0 0 -215z"/>
</g>
</svg>
