<?xml version="1.0" standalone="no"?>
<!DOCTYPE svg PUBLIC "-//W3C//DTD SVG 20010904//EN"
 "http://www.w3.org/TR/2001/REC-SVG-20010904/DTD/svg10.dtd">
<svg version="1.0" xmlns="http://www.w3.org/2000/svg"
 width="512.000000pt" height="512.000000pt" viewBox="0 0 512.000000 512.000000"
 preserveAspectRatio="xMidYMid meet">
<metadata>
Created by potrace 1.14, written by Peter Selinger 2001-2017
</metadata>
<g transform="translate(0.000000,512.000000) scale(0.100000,-0.100000)"
fill="#000000" stroke="none">
<path d="M2995 4853 c-135 -18 -430 -85 -489 -111 -49 -22 -108 -85 -138 -147
l-22 -45 80 -82 c133 -137 255 -323 325 -491 22 -54 44 -93 53 -95 9 -2 16 1
16 5 0 5 18 19 39 31 22 12 53 38 70 57 46 52 42 96 -19 252 -27 70 -47 129
-45 131 16 16 202 -175 274 -282 49 -72 121 -202 121 -218 0 -5 -344 -8 -765
-8 l-765 0 0 98 c0 230 62 402 191 532 61 62 129 105 240 151 127 52 186 106
102 93 -44 -7 -218 -71 -283 -104 -130 -66 -280 -198 -355 -311 -73 -109 -134
-287 -135 -391 0 -67 -2 -68 -109 -68 l-97 0 -289 -900 -289 -900 -136 0 -136
0 110 -885 111 -885 1907 0 1906 0 6 38 c5 28 180 1439 210 1689 l6 42 -136 3
-136 3 -288 895 -287 895 -141 3 -141 3 -16 57 c-88 309 -261 534 -565 732
l-84 55 85 16 c46 8 94 21 106 27 19 11 93 102 93 116 0 6 -134 6 -185 -1z
m-1451 -1375 c60 -179 144 -316 275 -451 92 -95 182 -167 298 -238 40 -24 73
-47 73 -50 0 -4 -30 -12 -67 -19 -103 -19 -127 -32 -167 -92 l-36 -53 76 -3
c106 -4 311 36 539 105 64 20 125 66 163 123 54 81 54 79 -50 189 -123 130
-214 259 -289 411 -34 69 -65 133 -70 143 -9 16 19 17 522 17 l532 0 -6 -122
c-6 -142 -23 -211 -78 -325 -68 -142 -213 -266 -364 -313 -46 -14 -135 -68
-135 -81 0 -18 61 -8 161 27 180 62 289 126 405 236 149 142 222 294 259 541
l6 38 72 -3 71 -3 241 -750 241 -750 -1650 -3 c-907 -1 -1651 0 -1653 1 -2 2
102 332 231 733 128 401 237 739 240 752 7 20 14 22 70 22 l63 0 27 -82z m711
62 c-10 -11 -37 -31 -60 -45 -44 -26 -75 -74 -75 -118 0 -29 37 -136 81 -234
16 -36 27 -68 24 -71 -8 -8 -74 47 -156 128 -85 85 -165 193 -215 293 l-34 67
226 0 c226 0 227 0 209 -20z m-406 -2160 c47 -13 89 -56 102 -103 8 -32 7 -51
-11 -109 -12 -39 -19 -77 -16 -84 5 -12 108 -14 636 -14 710 0 655 -7 630 79
-31 107 -23 160 32 206 57 48 139 42 192 -14 34 -35 126 -317 126 -383 0 -63
-35 -125 -89 -159 l-45 -29 -851 2 -852 3 -37 29 c-47 35 -74 78 -81 131 -5
30 3 72 35 175 69 227 81 250 146 270 39 11 44 11 83 0z"/>
</g>
</svg>
